<?xml version="1.0" encoding="utf-8"?>
<!-- Svg Vector Icons : http://www.onlinewebfonts.com/icon -->
<!DOCTYPE svg PUBLIC "-//W3C//DTD SVG 1.1//EN" "http://www.w3.org/Graphics/SVG/1.1/DTD/svg11.dtd">
<svg version="1.1" xmlns="http://www.w3.org/2000/svg" xmlns:xlink="http://www.w3.org/1999/xlink" x="0px" y="0px" viewBox="0 0 256 256" enable-background="new 0 0 256 256" xml:space="preserve">
<metadata> Svg Vector Icons : http://www.onlinewebfonts.com/icon </metadata>
<g><g><g><path fill="#000000" d="M127.3,10.5c-0.5,0.3-2.8,2-5,3.7c-15.5,12.1-32.5,22.3-42.8,25.7c-9.2,3-21,4.7-35.7,5.1l-10.2,0.3l-1.1,1.3l-1.1,1.4l0.1,56l0.1,56.1l1.6,4c4,10.4,13.2,23,27.5,37.6c26.8,27.3,55.6,45.7,69.3,44.1c14.4-1.7,38.9-18.5,63.4-43.4c17.7-18,29.2-34.3,30.9-43.5c0.3-1.7,0.4-21.7,0.4-57.1c-0.1-54-0.1-54.4-1.1-55.3c-0.9-0.9-1.7-1-9.3-1.1c-18.7-0.4-33.6-4.2-51.1-13c-11.1-5.6-23.8-14-29.7-19.6C130.5,10,129.1,9.5,127.3,10.5z M132.9,22.1c2.1,1.7,6.6,4.9,9.9,7c22.5,15,44.6,22.7,67.1,23.5l7.2,0.3l-0.1,53.4l-0.1,53.4l-2,4c-8.2,16.3-37,46-61.3,63.1c-6,4.2-17.5,10.2-21.2,11.1c-5.2,1.2-9.5,0.3-17.4-3.5c-26.3-12.8-67.9-53.2-74.7-72.5l-1.1-3.2v-52.9V52.9l7.3-0.3c14-0.7,26.7-2.7,35.9-5.8c10.7-3.6,27.3-13.3,41.9-24.5c2.4-1.9,4.5-3.3,4.7-3.3C128.9,19,130.8,20.4,132.9,22.1z"/><path fill="#000000" d="M127.1,45.5c-0.4,0.1-2.8,1.9-5.4,3.8c-9.1,6.9-19.3,13-25.5,15.6c-6.3,2.7-16.1,4.3-28.8,4.9c-7.3,0.3-7.6,0.4-8.5,1.5c-0.9,1.2-0.9,2-0.8,40.5l0.1,39.3l2.2,4.5c7.6,15.7,34,40.5,53.7,50.6c10.4,5.3,16,5.5,25,1c16.5-8.3,38.9-27.4,51.2-43.8c1.6-2,3.9-5.7,5.1-8.2l2.2-4.5l0.1-39.1c0.1-46.6,1-41.7-7-41.7c-9.9,0-20.9-2-29.6-5.5c-8.7-3.5-20.4-10.2-27.9-16c-2.4-1.9-5-3.4-5.5-3.2C127.8,45.2,127.5,45.4,127.1,45.5z M132.2,56.9c12.9,9.2,28.2,16.3,40.7,18.7c3.7,0.7,14.7,2,17.3,2c0.1,0,0.2,16.2,0.2,36v36l-1.4,2.7c-2.4,4.8-8,11.5-17.6,21c-17,16.9-33.5,28.7-42.1,29.8c-8.1,1.1-27.4-11.5-46.3-30.5c-9-9-13.2-14.2-16-19.6l-1.4-2.8v-36.6V77.1h3.3c8.3,0,20.7-2,27.6-4.3c6.6-2.3,15.1-7.1,25.8-14.7c3-2.1,5.6-3.9,5.8-3.9C128.3,54.2,130.1,55.4,132.2,56.9z"/><path fill="#000000" d="M121.5,86.1c-5.6,1.2-10.5,4.9-12.9,9.6c-2,4-2.5,7.1-2.3,14l0.1,6h-3.8c-4,0-4.9,0.4-5.9,2.2c-0.4,0.7-0.6,6.8-0.6,21.3c0,21.3,0.1,22.5,2.1,23.3c0.4,0.1,14.8,0.3,31.9,0.3h31.1l1-1.1c1-1.1,1-1.2,1-22.6v-21.5l-1.2-1c-1-0.8-2-1-5-1h-3.8v-7.4c0-8.2-0.4-10.2-3.2-14.4c-1.9-2.9-5.3-5.5-8.9-7c-2-0.8-3.8-1-10.1-1.1C126.9,85.7,122.6,85.9,121.5,86.1z M138.3,93.8c2.7,0.8,6.6,4.8,7.3,7.7c0.3,1.2,0.6,4.9,0.6,8.2v6h-16.2h-16.2V109c0-7.1,0.3-8.8,2.6-11.7c0.6-0.9,2.3-2.1,3.7-2.8c2.3-1.1,2.9-1.2,9.4-1.2C133.3,93.3,137.2,93.5,138.3,93.8z M156,139.3l-0.1,16.1l-23.8,0.1c-13.1,0-24.8,0-26-0.1l-2.3-0.3v-15.9v-15.9h26.2h26.2L156,139.3z"/><path fill="#000000" d="M122.3,136.6c-0.6,0.6-1,1.6-1,2.6c0,1,0.4,2,1,2.6c0.9,0.9,1.6,1,7.5,1c6.3,0,6.7,0,7.6-1.1c1.3-1.4,1.3-3.2,0-4.8c-1-1.2-1-1.2-7.6-1.2C123.9,135.7,123.2,135.7,122.3,136.6z"/></g></g></g>
</svg>